<svg version="1.1" xmlns="http://www.w3.org/2000/svg" viewBox="0 0 235 139" width="100px">
  <path fill="#ce2f4a" stroke="none" d="M193.656,8C180.656,3.2,166.457,2,149.657,2C132.657,2,116.45800000000001,2.6,99.45800000000001,3.6C97.45800000000001,4.4,97.65800000000002,7.6,99.25800000000001,8.6L103.65800000000002,9.2C112.05700000000002,10.399999999999999,113.05700000000002,14.6,113.05700000000002,28.599V104.598C113.05700000000002,111.112,113.01800000000001,115.834,112.61800000000002,119.3C114.40500000000003,121.08,116.22100000000002,122.76299999999999,118.09200000000003,124.331C118.11800000000002,124.35300000000001,118.14400000000003,124.375,118.16900000000003,124.397C121.08300000000003,126.96900000000001,125.36300000000003,128.692,129.61800000000002,129.008C130.026,129.038,130.42600000000002,129.131,130.806,129.282C132.58700000000002,129.99300000000002,133.82500000000002,131.592,134.116,133.55800000000002C134.20100000000002,134.13100000000003,134.18900000000002,134.704,134.10500000000002,135.26300000000003C140.22500000000002,135.70200000000003,147.33800000000002,136.19700000000003,154.455,136.19700000000003C169.854,136.19700000000003,186.25500000000002,133.59600000000003,199.25400000000002,126.59600000000003C222.05400000000003,114.19700000000003,234.25400000000002,92.39700000000003,234.25400000000002,66.99700000000004C234.256,40.6,220.656,17.8,193.656,8ZM158.057,129.998C145.457,129.998,137.85799999999998,127.99799999999999,133.457,121.79799999999999C130.058,116.99799999999999,129.457,110.59899999999999,129.457,99.99799999999999V26.2C129.457,17.2,129.857,12.2,131.457,11C133.058,9.8,139.457,8.2,151.257,8.2C203.656,8.2,214.256,45.399,214.256,67.399C214.256,104.599,196.857,129.998,158.057,129.998Z"></path>
  <path fill="#ce2f4a" stroke="none" d="M19.724,32.8C19.724,13.799999999999997,19.124,10.399999999999999,10.924,9.399999999999999L4.523999999999999,8.599999999999998C3.123999999999999,7.599999999999998,3.123999999999999,4.399999999999998,4.723999999999999,3.599999999999998C15.924,2.599999999999998,29.724,1.9999999999999978,49.324,1.9999999999999978C61.723,1.9999999999999978,73.523,2.999999999999998,82.723,7.999999999999998C92.323,12.999999999999998,99.32300000000001,22,99.32300000000001,36C99.32300000000001,55,84.32300000000001,65.4,74.32300000000001,69.399C73.32300000000001,70.599,74.32300000000001,72.599,75.32300000000001,74.2C91.322,99.999,101.923,115.999,115.52300000000001,127.398C118.92200000000001,130.398,123.92200000000001,132.59799999999998,129.323,132.999C130.323,133.398,130.52200000000002,134.999,129.52200000000002,135.799C127.72200000000002,136.399,124.52300000000002,136.799,120.72200000000002,136.799C103.72300000000003,136.799,93.52200000000002,131.799,79.32200000000003,111.599C74.12300000000003,104.2,65.92300000000003,90.4,59.72200000000003,81.4C56.72200000000003,77.001,53.52300000000003,75.001,45.52300000000003,75.001C36.52300000000003,75.001,36.12300000000003,75.20100000000001,36.12300000000003,79.4V104.60000000000001C36.12300000000003,125.599,36.52300000000003,127.99900000000001,48.12300000000003,129.59900000000002L52.323000000000036,130.199C53.52300000000004,131.199,53.12300000000003,134.59900000000002,51.92300000000004,135.199C42.92300000000004,134.8,36.12300000000003,134.59900000000002,28.123000000000037,134.59900000000002C19.723000000000035,134.59900000000002,12.523000000000037,134.799,3.1230000000000366,135.199C1.9230000000000367,134.59900000000002,1.5230000000000365,131.59900000000002,2.7230000000000367,130.199L7.723000000000036,129.59900000000002C19.323000000000036,128.20000000000002,19.723000000000035,125.59900000000002,19.723000000000035,104.60000000000002V32.8ZM36.124,61.399C36.124,64.999,36.124,67.199,36.724000000000004,67.999C37.324000000000005,68.59899999999999,40.324000000000005,68.999,50.524,68.999C57.724000000000004,68.999,65.324,68.199,71.124,63.79899999999999C76.523,59.59899999999999,81.124,52.599999999999994,81.124,38.99999999999999C81.124,23.199999999999992,71.324,8.200999999999993,49.123999999999995,8.200999999999993C36.724,8.200999999999993,36.123999999999995,9.000999999999994,36.123999999999995,14.600999999999994V61.399Z"></path>
</svg>